Coordinates
version=1
nRows=8
nColumns=40
inDegrees=yes

Units are S.I. units (second, meters, Newtons, ...)
Angles are in degrees.

endheader
time	pelvis_tilt	pelvis_list	pelvis_rotation	pelvis_tx	pelvis_ty	pelvis_tz	hip_flexion_r	hip_adduction_r	hip_rotation_r	knee_angle_r	knee_angle_r_beta	ankle_angle_r	subtalar_angle_r	mtp_angle_r	hip_flexion_l	hip_adduction_l	hip_rotation_l	knee_angle_l	knee_angle_l_beta	ankle_angle_l	subtalar_angle_l	mtp_angle_l	lumbar_extension	lumbar_bending	lumbar_rotation	arm_flex_r	arm_add_r	arm_rot_r	elbow_flex_r	pro_sup_r	wrist_flex_r	wrist_dev_r	arm_flex_l	arm_add_l	arm_rot_l	elbow_flex_l	pro_sup_l	wrist_flex_l	wrist_dev_l
      6.41750000	     -2.37181885	     -2.94129382	     -2.47909869	      0.93783223	      0.93540960	      0.45938812	     35.95646041	     -6.96303871	     -6.72972399	     64.21866355	     64.21866355	      3.76734203	    -16.26816755	      4.21959895	      8.41746786	     -3.54551843	    -11.90192552	     16.13086412	     16.13086412	     11.82845481	     -9.23135903	     -7.21264510	    -12.46797374	      2.30711851	      0.88487541	     -2.25480062	    -13.92900354	     -4.06472963	     54.65514164	     46.22496494	      0.00000000	      0.00000000	     16.84458894	    -15.05905507	      5.06219868	     39.54672127	     46.22368007	      0.00000000	      0.00000000
      6.42871429	     -2.38807794	     -2.78874295	     -2.60013012	      0.93749621	      0.93526366	      0.45889026	     36.25749780	     -7.02853202	     -6.64670790	     61.04655661	     61.04655661	      3.45426672	    -16.18925486	      3.81128254	      7.53056520	     -3.20508880	    -11.90265595	     15.40740062	     15.40740062	     11.80822982	     -9.39032111	     -7.71072426	    -12.54475119	      2.23904233	      0.43498932	     -1.71647110	    -13.13884416	     -6.02221959	     46.73477872	     46.53686604	      0.00000000	      0.00000000	     17.20810836	    -15.94792777	      4.56362519	     42.85139105	     46.31115997	      0.00000000	      0.00000000
      6.43992857	     -2.38564023	     -2.66098671	     -2.75862757	      0.93724700	      0.93502820	      0.45849945	     36.33233646	     -7.03607620	     -6.65549736	     57.42706761	     57.42706761	      3.13044587	    -15.97659037	      3.39268901	      6.60814355	     -2.90674033	    -11.97502366	     14.68811572	     14.68811572	     11.89351960	     -9.40272605	     -8.08619865	    -12.71659256	      2.24328453	      0.51955998	     -2.25129912	    -13.02842637	     -7.22208994	     41.50567755	     46.72124527	      0.00000000	      0.00000000	     17.89887723	    -16.37788824	      3.79100471	     45.95584235	     46.43451545	      0.00000000	      0.00000000
      6.45114286	     -2.39959394	     -2.59166148	     -2.94175181	      0.93706451	      0.93470064	      0.45822267	     36.23607403	     -6.92618998	     -6.74401968	     53.42302270	     53.42302270	      2.96471058	    -15.45186233	      3.73363518	      5.71693165	     -2.69482627	    -12.10210768	     14.03659761	     14.03659761	     12.17065536	     -9.19563373	     -8.16606914	    -12.92111448	      2.35703500	      1.18200733	     -4.10748949	    -13.47373025	     -7.38791761	     39.29526580	     46.78949372	      0.00000000	      0.00000000	     19.30695352	    -16.31947638	      3.39726392	     47.80896490	     46.50642007	      0.00000000	      0.00000000
      6.46235714	     -2.50454100	     -2.39505311	     -3.09671816	      0.93706517	      0.93404694	      0.45805446	     35.98631315	     -6.94233424	     -6.99060532	     48.96485973	     48.96485973	      2.35153126	    -14.94654058	      2.20766311	      4.84119451	     -2.32220947	    -12.19218644	     13.18784263	     13.18784263	     12.08214400	     -9.24668001	     -8.89905496	    -12.91356792	      2.24751757	      0.66831774	     -3.36857379	    -13.05743231	     -9.52890240	     32.33189766	     47.11973440	      0.00000000	      0.00000000	     19.02581091	    -17.24397514	      2.25249013	     52.41181807	     46.66880843	      0.00000000	      0.00000000
      6.47357143	     -2.61837846	     -2.20791050	     -3.27768028	      0.93720226	      0.93326666	      0.45794320	     35.59919782	     -6.88043987	     -7.27954042	     44.29057488	     44.29057488	      2.18261877	    -13.79244951	      2.16667703	      3.99013862	     -1.98180581	    -12.36359924	     12.42497832	     12.42497832	     12.29120957	     -8.95809355	     -9.12451551	    -12.94742096	      2.21320313	      1.31003432	     -5.01447870	    -13.39063024	    -10.13701541	     30.10559746	     47.21338098	      0.00000000	      0.00000000	     20.10515171	    -17.10910178	      1.57640447	     54.87004014	     46.77352098	      0.00000000	      0.00000000
      6.48478571	     -2.73106293	     -2.06542675	     -3.43492007	      0.93751402	      0.93233418	      0.45803544	     34.93535981	     -6.74145677	     -7.83035963	     39.22868349	     39.22868349	      1.59128737	    -12.31947701	      1.14199720	      3.13935493	     -1.70131971	    -12.50733047	     11.66697217	     11.66697217	     12.30819078	     -8.85989539	     -9.79151838	    -12.97628063	      2.18969377	      0.95669084	     -5.26248397	    -13.38223334	    -11.93231178	     26.36997086	     47.44325436	      0.00000000	      0.00000000	     19.88774547	    -17.83949593	      0.37795211	     59.20044474	     46.94115967	      0.00000000	      0.00000000
      6.49600000	     -3.08129576	     -1.61438066	     -3.56034619	      0.93774804	      0.93068095	      0.45817390	     34.62272200	     -6.73277294	     -7.96219940	     34.39080435	     34.39080435	      1.42542808	    -10.80417482	      1.87666080	      2.83493023	     -1.16324049	    -12.64393342	     11.43998304	     11.43998304	     12.63020029	     -8.77973784	    -10.01664155	    -12.60080457	      1.82453823	      0.85834769	     -6.80677325	    -13.66093596	    -12.05643326	     25.57848282	     47.47091949	      0.00000000	      0.00000000	     21.00846271	    -18.37668038	     -0.00301878	     60.18362100	     46.99504745	      0.00000000	      0.00000000
